/* XPM */
static char *_8486_a52e9af553b33ae8ad0cfb780f27b52443e110a691173d90afea1c3b004d3fb9[] = {
/* columns rows colors chars-per-pixel */
"100 62 26 1 ",
"  c #0D0303",
". c #0A0402",
"X c #0A0503",
"o c #0E0604",
"O c #110A08",
"+ c #140E0B",
"@ c #18130F",
"# c #1D1510",
"$ c #1C1611",
"% c #211B15",
"& c #282018",
"* c #2F251C",
"= c #352A1F",
"- c #3C2E23",
"; c #392F25",
": c #393024",
"> c #413327",
", c #48392C",
"< c #534435",
"1 c #514538",
"2 c #5F4E3D",
"3 c #665949",
"4 c #705D49",
"5 c #85725A",
"6 c #9A8467",
"7 c None",
/* pixels */
"@@@$%,->,<:77777777777777777777777777777777777777777777777777777777777777777777777777777773642242,,>",
"@@$$%,>>,2:77777777777777777777777777777777777777777777777777777777777777777777777777777773654252<,>",
"@@$$%>>>,<:77777777777777777777777777777777777777777777777777777777777777777777777777777773554252<,>",
"@@@$%-->,<:77777777777777777777777777777777777777777777777777777777777777777777777777777773544452,,>",
"@@$$%->>,<:7777777777777777777777777777777777777777777777777777777777777777777777777777777342425<,>>",
"@@$$%->,,2:77777777777777777777777777777777777777777777777777777777777777777777777777777773422,,-=**",
"@@$%&>>,<<:77777777777777777777777777777777777777777777777777777777777777777777777777777773422,-****",
"OO++@=>,,<:77777777777777777777777777777777777777777777777777777777777777777777777777777773222<-***=",
"++@@%->,,<:77777777777777777777777777777777777777777777777777777777777777777777777777777771<222,>---",
"++++@=>,,<:77777777777777777777777777777777777777777777777777777777777777777777777777777771<22<=*&&&",
"@@@$$=>>,<:77777777777777777777777777777777777777777777777777777777777777777777777777777773<<<<<<,>-",
"$$$$%->>,2:77777777777777777777777777777777777777777777777777777777777777777777777777777771<<<<<2<>>",
"$$$$%->>,<:77777777777777777777777777777777777777777777777777777777777777777777777777777771<<,<<<,>>",
"$$%$%=--,<:77777777777777777777777777777777777777777777777777777777777777777777777777777771<<,<<<,--",
"$$$$%=--,,:77777777777777777777777777777777777777777777777777777777777777777777777777777771<<,<<,>-=",
"$$$$%--->,:77777777777777777777777777777777777777777777777777777777777777777777777777777771<<,,,>-=*",
"$$$$%--=>,:77777777777777777777777777777777777777777777777777777777777777777777777777777771,,>,-=***",
"$$$$%--=>,:77777777777777777777777777777777777777777777777777777777777777777777777777777771,,,>=**&*",
"$$$$$=-=>,:77777777777777777777777777777777777777777777777777777777777777777777777777777771,,,>==*&&",
"@@$$$--=>,:7777777777777777777777777777777777777777777777777777777777777777777777777777777;,,,>==*&&",
"@@$$$--->,:7777777777777777777777777777777777777777777777777777777777777777777777777777777;,,,>=****",
"@@$$%-----:7777777777777777777777777777777777777777777777777777777777777777777777777777777;,,,>===**",
"@@$$%=>--=:7777777777777777777777777777777777777777777777777777777777777777777777777777777;,,>,--=**",
"@@$$%--=--:7777777777777777777777777777777777777777777777777777777777777777777777777777777;,,>,>-===",
"@@$$%--===:7777777777777777777777777777777777777777777777777777777777777777777777777777777;,,>>---==",
"@@$$%--*==:7777777777777777777777777777777777777777777777777777777777777777777777777777777;>,>-==**=",
"@@@$$==**=:7777777777777777777777777777777777777777777777777777777777777777777777777777777;>,>-*****",
"@$@$$==***:7777777777777777777777777777777777777777777777777777777777777777777777777777777;---=**&*&",
"@$@$$*-**=:7777777777777777777777777777777777777777777777777777777777777777777777777777777;--==&&&&&",
"@@$$$*-**=:7777777777777777777777777777777777777777777777777777777777777777777777777777777;====&&&&&",
"@@@$$*=**=:7777777777777777777777777777777777777777777777777777777777777777777777777777777;===*&&&&&",
"@@@$$*=**=:7777777777777777777777777777777777777777777777777777777777777777777777777777777;===*&%%%%",
"@@@$$**&*=:7777777777777777777777777777777777777777777777777777777777777777777777777777777;==*&%%&%%",
"@@@@$&*&**:7777777777777777777777777777777777777777777777777777777777777777777777777777777;==*&%%%%%",
"@@@@$&*&**:7777777777777777777777777777777777777777777777777777777777777777777777777777777;*=*&%%%%%",
"+@@@$&*&&*:7777777777777777777777777777777777777777777777777777777777777777777777777777777;***&%%%%$",
"+@@@@&&&&*:7777777777777777777777777777777777777777777777777777777777777777777777777777777#&&&&%%$$@",
"+@@@@&&&&*:7777777777777777777777777777777777777777777777777777777777777777777777777777777#&&&&%%$$@",
"@@@@$&&&&*:7777777777777777777777777777777777777777777777777777777777777777777777777777777#&&&&%%$$@",
"@$$@$&&&&&:7777777777777777777777777777777777777777777777777777777777777777777777777777777#&&&%%%$$@",
"@$$@$&&%&&:7777777777777777777777777777777777777777777777777777777777777777777777777777777#&&&%$$$$@",
"@@@@@%&%&&:7777777777777777777777777777777777777777777777777777777777777777777777777777777#%%&%$$$$@",
"+@@@@%&%%&:7777777777777777777777777777777777777777777777777777777777777777777777777777777#%%&%$$$@@",
"+++@@%&%%%:7777777777777777777777777777777777777777777777777777777777777777777777777777777#%%%$$@@@+",
"+++++%%%%&:7777777777777777777777777777777777777777777777777777777777777777777777777777777#%%%%@@@@+",
"+++++%%%%%:7777777777777777777777777777777777777777777777777777777777777777777777777777777#%%%$@@@@+",
"O++++$%%%&:7777777777777777777777777777777777777777777777777777777777777777777777777777777#%$%$@@@++",
"@$$$%&&&*,17777777777777777777777777777777777777777777777777777777777777777777777777777777;-**%%$$$$",
"$%%%&&%$&&:7777777777777777777777777777777777777777777777777777777777777777777777777777777;=**&&&&%%",
"+++++$%$$=:7777777777777777777777777777777777777777777777777777777777777777777777777777777;%%$@+++++",
"$$$$%&%%&>:7777777777777777777777777777777777777777777777777777777777777777777777777777777;***&&%$$$",
"+++++$$@$$#7777777777777777777777777777777777777777777777777777777777777777777777777777777#++++++OO+",
"OOOO+$$@$$#7777777777777777777777777777777777777777777777777777777777777777777777777777777#+++++OOOO",
"OOOO+$$@$%#7777777777777777777777777777777777777777777777777777777777777777777777777777777#+++++OOOO",
"OOOO+$$$$$#7777777777777777777777777777777777777777777777777777777777777777777777777777777#++++OOOOO",
"OOOO+$$@$$#7777777777777777777777777777777777777777777777777777777777777777777777777777777#++++OOOOO",
"OOOO+$@@$$#7777777777777777777777777777777777777777777777777777777777777777777777777777777#++++OOOOO",
"OOOOO$@+@$#7777777777777777777777777777777777777777777777777777777777777777777777777777777#++++OOOOO",
"OO+++$$@%%:7777777777777777777777777777777777777777777777777777777777777777777777777777777#@@@+++++O",
"OO++@$@@$$#7777777777777777777777777777777777777777777777777777777777777777777777777777777#+@@$@$@@+",
"  oooOOoOO#7777777777777777777777777777777777777777777777777777777777777777777777777777777#oooooOOoo",
"... o++O++#7777777777777777777777777777777777777777777777777777777777777777777777777777777#ooo.X. XX"
};
