/* XPM */
static char *_1156_4cb16de24c37a775905b0533106b3ee5534a926bf50d5104cc934e81c8078e71[] = {
/* columns rows colors chars-per-pixel */
"100 62 52 1 ",
"  c #190F0B",
". c #140C09",
"X c #23130B",
"o c #2A1A10",
"O c #17120F",
"+ c #27170E",
"@ c #1F110A",
"# c #271D15",
"$ c #30261E",
"% c #100907",
"& c #362A20",
"* c #1D130E",
"= c #2F1E13",
"- c #211711",
"; c #090608",
": c #1A1713",
"> c #28211A",
", c #46382B",
"< c #352115",
"1 c #1F1C18",
"2 c #492F1F",
"3 c #3F2719",
"4 c #403327",
"5 c #422B1D",
"6 c #2F2219",
"7 c #4D3E30",
"8 c #382418",
"9 c #3A2F24",
"0 c #5A3A27",
"q c #68442F",
"w c #633F2A",
"e c #5D4B3B",
"r c #4D3323",
"t c #533625",
"y c #554434",
"u c #7B5138",
"i c #704B34",
"p c #966446",
"a c #5A3F2D",
"s c #685442",
"d c #84583D",
"f c #755D48",
"g c #AE886B",
"h c #8E5E41",
"j c #826751",
"k c #9E7C60",
"l c #8D7159",
"z c #A46D4C",
"x c #23292C",
"c c #BA9677",
"v c #C1A78A",
"b c #E2D4C1",
/* pixels */
"OOO:1,94,y&%;Oxx,,6&994,t,tteyyqqesiiudfffjjjlllllkggcgkgggccccgcvvvcckgkkggggggljfbbvsye,ekfeefe7,,",
"OO::1,44,e$;;:xx44->4,>&999$sat0,7esqqiieysffhfffjzggckkkggcgccgvbcgggfgvgcglkcvjfjbbceye7eglfsje7,4",
"OO::1444,e$;;Oxx,9OO#6O****O,trt9&7qaqqyy9ysudsfsflkgcljjkgckgcgkcgzzki7e77yffsessfbvkyee7ekljslsy,4",
"OOO:-994,e$;;Oxx44*.........#22r285t0wwt7&4aiuissdjlkgkjfjgkkcglfdpzzpa#>6#6ysy,fffvvly7e7slffsle7,4",
"OO::-94,7e$;;Oxx9,-*O     *-=&55592rrt077,47aqeeesfjlljlkkkkggklffjjjje7sfsssseefssvgj77y7essssje,44",
"OO::194,7e$;;Oxx9,-***----+oooo#=<8<6883&&&&&5592rt0aa0ayeqyyeyaayqqqqaaaaaa7ttt0recls77e7efss7,9&$$",
"O*:-#44,7e$;;Oxx97o++o8=<=8<88833rr55rtw00at0wtawaqqqqwiidpdddduuddhppddhduiiiuuiwykjs77e7sfee,9$$$$",
"%%. *&4,7y$;;:1x97=oo=3838333555200220quqqqawiwqiiuuuiidhpzpppphhppzzzzzpphduuuuuqylfs7ye7eeeey9$$$$",
"..O*-94,,e$;;O>x97====385353352220w2r0quqqiaqqwqiiuuuuuppzzhppphhppzzzzzphdduuuuuqyljf777,7yeee74999",
"..  *$4,7y$;;O>x9y=o==3353225522r0w2r0quqqqawiwqiiuiuudpzzzpphphdppzzzzzppduuuuuuqeklf7,7,yeeey&6>>>",
"OOO*-&44,y$;;O1>97#ooo835322352rr0022twiwaqwwqwiiqiiuudpppzpphhddppzzzpzhhduiiuuiweklf777,yeyyyyy,99",
":::--9447e&;;O11&,#==o335352332rrtt52rwq0aqawqwiiqiqiuuhppppphduuppppphpdhduqqiiq0yljf77y,7yyyyye744",
":::-19447y&;;O1>&,-&,=33585283522r254t0wtaw0wq0esaqasjudhpphpdffjlkkpddhdhhuqwqfer7fsfy774yy777ye744",
":---1&99,7&;;O1>9,O-&=353852885&&&&&&,0w0aa00qr&70q797iudphhhufjjjjljudpddduw0r,42,ssf,,,4yy77yyy,99",
"----1&99,7&;;O11x4*@+=35382288386=6=6,ww0aattar2tay7taiudhhduiey777yeudpduuiawt822,ess,,747yy7yy749&",
"----19994,$;;O1>x4#+o=83382288866=66690w0aatt0r0aaqaqiiudhhduqy7,7,7euuhddiiwwwa0r,ess,,,477y,7,49&$",
"**--199&4,&;;O11x7#+o=833<5588<6##6==&0q0aart0taqaqaqiiudhhuiw,,,777aiidddiiqqwww2,ssf,,,9,7,,,9&$$$",
"***--9&&4,&;;O1>x7#+o=888<55<<=6##6=#&0q0t0rrtr0waa7qiqiiiuiqa,44,,,7qquuuiieqww057sss4449,,,,4&$666",
"****-&9&4,&;;O11$,##6=<6<=558==>###>#&tqtrtrrt27q0qaaqaqqquiqa499,44t0wiiia7aaaa05,sse499&,,,,4&$6>6",
"****-&5&4,9;;O:1$,-$,=<<<=558<o>#####$20rrtr2r37e2r47e,awwiqw0499449,00iqq00077s7&,ese9999,,,,4&$6>6",
"O**--&594,&;;O:1$4O*==<<<=358<o#=####65tr2r2228>952&$94a0www0r4&$&&&,0wqqq000t59&&,yey999&,,,,4$$$$$",
"O**--99&99$;;.:1>9* -+====88<=o#>####$5rr225523682t5589t00w0029&&&&&r00wqq0wtr3o8847y7&949,,7,4&&&$$",
"O**--&4&9&$;;.::19o+++====<<===#>###>$322245525552t2t5&t00w0t299&&994t00wwtwr22r234777&99$4,,,,49&$$",
"O**--&9&9&$;;.:1>$o+o+=o==<==<<ooo=##63r2r23525552t2t5$rwww0tr&&&&&&4t0wwwt0222tt347,7$&9$4,,4,49&&&",
"O**-199&&9$;;.:11$#oo+=o<=<==88==83<=<5r2r28523535r2t56rwqw00r588335tw0wqwrt222rr34,,,$$$>4,,4499&&&",
"OO::1&5$$&$;;.::1&#+o+o=<===<88<<83<<32t2558353335r2r3$20qqa0tr22rt0wqqwqw225222289449#-->4,,49&&$$&",
"OOO:-&&6$&$;;.::1&#+++o=<==o<88<<88<<32t233833333325r3$20ww00trr200wwqqqw022552228&49465r444,49$$$$$",
"O:O:-&&$$$$;;.::1&#+++o=<==o<<8<6=6&$35r53883333885323$20ww00tr2rw0wwwqw00225222289499&2r54999&66>6>",
"O:O::$9$$&$;;.::1&#XXXo=<==o=<<#>#$9$=$2388883338<855862twwttt222w000ww0tr555rrrr&449985259&9&&6>>6>",
"O*:::$9$$&$;;.::19#XXX+=<ooo=o-#&9,,ej766<<<<888<=$,&562t00rrr555trrt00t223332225$4499835&9&&&$>>>>>",
"O*O::$&$$&$;;.::1&#X-X+o==o+#-->94,7esl4#=<<<<<<<o#6$4652tt2253832252rtr33<<<8538>4,4&688$9&&&$>>>>#",
"O*O::$&6$&$;;%O:1&#666$888866#1>$&9,eeye&&&8&99&&#-##64eeeeeye7ysse7yeey77,r49,496949&>666&&&&6#1111",
"OOO::6$6$$6;;%O:1$->94>449&=>--11$&9474,&==o6$&66-*>#6&7y7,,,777jj7,,4,syee744yy9>$9&&#6>6&&&$>11111",
"OOOO:>$>$$>;;%O:1$*O>&:$9&6->$$$&&&49,449&&=--1##*O1>6=$4,94444947499&$77esy&&796#$&&$#=#>$&&$>11111",
"OOOO:>$66$>;;%O:16* * ... @ *-++o++o+++ooo#-***-o O-#6##>&9&&9&$=6&99&-*   -6>-#$>$&$$o##>$$$$>11111",
" OOO:>666$>;;%OO:>*  ....  . . ... ..    %%%.  *- *1-6###$$66$66==6&&6*.... #=+#6#>6>>+###$6$6>111::",
" OOO:>6>6$>%;%OO:> ...    .. . ..    *--.%%%%*O. . **o+--oooooo+oo#ooo .....@***X*>>>>+###6>>>#11:::",
" OOOO#6#>$>;;%.O:>*@@@+X+X .*...    *#>-..%%.@* *..*@+=<8333888<<38835+..%% -oooo->>>>-oo#>>>>#1:::O",
"O*OO:>>##6>;;;.O:>-XXXo+o+@.*.%.--*-#6+ ...%.*X++  XX=<355533338833322<X@@ Xo====->>11-oo#>>>>#11::O",
"O::O:>>#>6#;;;.OO>-@XX++ooX.%%%%.*-#+* ... .  -o+ XXo<855555388<<335228o+=+oo====->111-o+#>>>>11:::O",
"O::O:####>#;;;.OO#-@@@++o+X@.%%;%%%.%.  @@@  X+=oXoo=<83555538<=<333338=o<ooo====-1111*--1###>1::::O",
"OOOOO####>#;;;. O#*-6@++o+++@.%%%%%%. X+XXo-@oo66+oo<<<833333<==<355388==8=o+o==o*1:::*-:1###>1::::O",
"OOOOO######%;;..O#O-&-X+oX++@ %%%.  X+==+*>$Xo+$9+oo$&<835338=###>666<8<=8<oX+69+*1:::O::11###1::::O",
".OOOO1#####;;;.. # . @XooX++@...@++X+o<<o@O*X+XO-+o-*#=<83388=o-----#=3<=<=oX+::@*::::O:::1111:::::O",
".    -#-###;;;.. #O.  X+oX++@. @+ooXXo<<oX@@X+XX++o+Xo=<833<<o------o=88==oo+o*.@*-:::O:::1-111:OOOO",
".... -#--##%;;.. #:  @X++@XX  @X+ooXXo<8=++X++X+oo&=o=<8833<<o------o=<8==o=+o+XX*::::O:::11-1::OOO.",
".... -#-->>%;;.. #:   @++@XX  X++o+XXo<3=++++o-+o->oo<<<833<=+------oo<<==##o+++X :::OOO::-1-1:OOOO.",
"O:::1>>#$,,:;;%..-*  @@+X @@@@X++ooXX+=3=+o+++X++@@-o====<8<=+------+o<<oo+oo+++XO:*OOO:1&99$>11::::",
":111>>#-#>6*;;%..*O*#@@XX @X@X+++ooXX+=<o++X++Xoo*++o=o===<=o+-**-*-o+=<oo+++++oX **OOO:O1$&$$>>>>11",
"...  -#:-&&>%;%..* :$-@XX @XXX+o+ooXX+o=+X+XX+*>$X+X>6ooo==oo+-***@X++==oo++XX->* *OO  :1>$11:OO....",
":::-1##1>9$>%;%..*.%  @XX @+X++++oo+X+oo+XXXX+ O*X+X*-++oooo+X-***@*++ooo+++XXO:    O ..:>&6$>>11:::",
".... ***--o#%;...*.%.  @X XXX+++X+o+X+oo+XX*XX   X+X@X+ooooo+X-*****X+o+o+X+XX .  *   ..OO    O.....",
"%%...****-o#%;...* ... @@@XX@XXXX++XX+ooXXX*XX@@*X+XX++ooooo+X-**--*X+++o+X+@XXX@ @@@ ..O*    ...%%%",
"%%%%.--*---#%;...*O. .  @@XX@@@@@X+@X++oXXX@XX@XX@+XX++oooo++X@  @@@++++o+XX@XXX@ @@@ ..O*    ...%%%",
"%%%..***-*-o%;.  O ...  @ XX @@@@X+@@X+o+@@@@X@@@@+XXX++++o++X@ @@@@+oo+o+@@@XXX@ @@X ..O*    ...%%%",
"%%.. **@**-#%;.    .....  @@     @X  @XoX    @ @@@XXX@X++X++XX@@X+XX+oo++X@@@X@@ .@XX .%      ..%%%%",
"%%%..** ***-%;.   ****-X+--+X++++oo++o===+ooooo++@XXX@X++XXXXX@@X+XXX++XX@   @@ ..@XX %%      ..%%%%",
"%%%%.** ***-%;   @*-######o#66===6$8==6666$$66=####=###6$$$$6&99&<69$966=6oo###o- @XX %.OO    .%%%%%",
".... -*O-##-%;  @ .*-#*1>>>#96X+-->>++++-*1#----**-oo+++oo#$6###$6+o++>$#==#-#$#* @XX %.O:*OOOO.....",
".. OO-*O*-*O;;    .. *.O---*++@@@O*-*XX** *--***@**X+XX--+-1#-----++XX#&,4,6*-#* .XXX %;%   O*:::OOO",
";;;;%.%%%. O;;.   %%%%%%%%%%.    ..      ..   .  @@@@XXXXX***-* @@XXX@ ..... ..  .XXX %;%%%%%%%%%%%;",
";;;;%...  OO;;.   %%%%%%%%%%%...%............... @XXXXXXXXX@@**@ @@X@ %;;;;% ..  .XX@..%%%%%;;;;;;;;"
};
