/* XPM */
static char *_5060_faf62fff8faaae73341025835005c6c383f502cf355f0b4c6f52edfa6fc220c2[] = {
/* columns rows colors chars-per-pixel */
"75 100 256 2 ",
"   c #FDE6AD",
".  c #FDE5AB",
"X  c #FEEAB3",
"o  c #373023",
"O  c #FDF0BB",
"+  c #FEEBB4",
"@  c #FCDB9F",
"#  c #342E21",
"$  c #FDE3AA",
"%  c #F9D69C",
"&  c #2D2A1D",
"*  c #FBDCA3",
"=  c #FEF3C0",
"-  c #2B281C",
";  c #393225",
":  c #FDE7AF",
">  c #FEF6C5",
",  c #3C3425",
"<  c #382E1F",
"1  c #FEF2BD",
"2  c #413524",
"3  c #FCDEA5",
"4  c #FEECB6",
"5  c #FDD89B",
"6  c #26251A",
"7  c #E7C28B",
"8  c #F9D499",
"9  c #FEE9B0",
"0  c #FEF4C2",
"q  c #44301B",
"w  c #E4C08D",
"e  c #E1BE8B",
"r  c #FAD89F",
"t  c #E3BC86",
"y  c #564731",
"u  c #FEF7C8",
"i  c #473420",
"p  c #FEF8CA",
"a  c #FEF0B9",
"s  c #FCE0A8",
"d  c #302C20",
"f  c #F2C98E",
"g  c #FCD698",
"h  c #583B20",
"j  c #FEE1A5",
"k  c #ECC892",
"l  c #5E3E21",
"z  c #3D2B1A",
"x  c #EDCA93",
"c  c #EAC590",
"v  c #E9C38E",
"b  c #FEFEE4",
"n  c #51422E",
"m  c #E0BA83",
"M  c #F9D194",
"N  c #4D3822",
"B  c #322415",
"V  c #3D2F1E",
"C  c #523C26",
"Z  c #FDE2A8",
"A  c #ECC48B",
"S  c #FEEEB8",
"D  c #201F15",
"F  c #F8CE92",
"G  c #FCDDA0",
"H  c #232117",
"J  c #F7D298",
"K  c #4C341D",
"L  c #F4D096",
"P  c #FBD396",
"I  c #3D3121",
"U  c #493C2A",
"Y  c #362B1D",
"T  c #362818",
"R  c #F3CB91",
"E  c #574028",
"W  c #FEFACE",
"Q  c #FEFEE8",
"!  c #3E3727",
"~  c #FEF9CC",
"^  c #634022",
"/  c #1D1A0A",
"(  c #FEFEE0",
")  c #E3BF85",
"_  c #53371E",
"`  c #49412E",
"'  c #463725",
"]  c #33361E",
"[  c #413C2C",
"{  c #FEFDDC",
"}  c #F6D49B",
"|  c #F5CD93",
" . c #FEFDD8",
".. c #FDDEA2",
"X. c #664F33",
"o. c #F0CD95",
"O. c #261D0D",
"+. c #FEFBD2",
"@. c #FEFCD5",
"#. c #2C311B",
"$. c #423220",
"%. c #665338",
"&. c #E9BE86",
"*. c #6F5537",
"=. c #694323",
"-. c #F8DAA3",
";. c #5C4C34",
":. c #EDC188",
">. c #5E4931",
",. c #73401E",
"<. c #604529",
"1. c #714522",
"2. c #E5C38F",
"3. c #F7CB8F",
"4. c #8F7649",
"5. c #2B2012",
"6. c #3C3A24",
"7. c #404033",
"8. c #5E5039",
"9. c #845026",
"0. c #7B4C25",
"q. c #7A4620",
"w. c #8A572B",
"e. c #EEC78F",
"r. c #DEB87F",
"t. c #37392C",
"y. c #724A27",
"u. c #534E40",
"i. c #F1C58A",
"p. c #735C36",
"a. c #795D3C",
"s. c #6A4627",
"d. c #4E4A3C",
"f. c #595241",
"g. c #6C644A",
"h. c #856A41",
"j. c #9C8350",
"k. c #6A3F20",
"l. c #EAC16A",
"z. c #EFE2A9",
"x. c #4D4634",
"c. c #92501F",
"v. c #8B6F43",
"b. c #BA6021",
"n. c #F2D489",
"m. c #F6EFBE",
"M. c #AF5B20",
"N. c #553119",
"B. c #BDA362",
"V. c #88491E",
"C. c #ECCD79",
"Z. c #EDC771",
"A. c #45453B",
"S. c #BE9B5A",
"D. c #D3B172",
"F. c #925B2B",
"G. c #937D47",
"H. c #C06F28",
"J. c #DDB367",
"K. c #EDCB83",
"L. c #F1DC9F",
"P. c #F6E9B8",
"I. c #61341A",
"U. c #665B40",
"Y. c #A68853",
"T. c #C8AB68",
"R. c #A1531D",
"E. c #7E6636",
"W. c #C9B46A",
"Q. c #9B632F",
"!. c #F9D792",
"~. c #D8B578",
"^. c #7A6442",
"/. c #B49657",
"(. c #9B7E4D",
"). c #EDD59B",
"_. c #9B8857",
"`. c #CA6620",
"'. c #9C7541",
"]. c #AE8F4F",
"[. c #766F4F",
"{. c #6B4B2D",
"}. c #DBC077",
"|. c #E8C073",
" X c #DEB86C",
".X c #E1C776",
"XX c #877A51",
"oX c #EEDF97",
"OX c #F9EDB6",
"+X c #CF8D3F",
"@X c #F8F4C0",
"#X c #402513",
"$X c #4C2B17",
"%X c #6D391A",
"&X c #C4A56A",
"*X c #7B542D",
"=X c #9D9E72",
"-X c #FAF1C6",
";X c #F5E5B3",
":X c #E4D28D",
">X c #B77733",
",X c #A78E5D",
"<X c #D56F21",
"1X c #F3E69D",
"2X c #F0AF55",
"3X c #B16828",
"4X c #D37E2C",
"5X c #F1DB8A",
"6X c #F7E19B",
"7X c #E59D45",
"8X c #E7B965",
"9X c #DEAE5F",
"0X c #FBF6D3",
"qX c #E0DA98",
"wX c #CEAE72",
"eX c #86431B",
"rX c #84613B",
"tX c #B39F62",
"yX c #E3CA8B",
"uX c #AEAD7A",
"iX c #A66C31",
"pX c #E9EBB1",
"aX c #AE824A",
"sX c #E77C20",
"dX c #C09251",
"fX c #CA7C30",
"gX c #D1984B",
"hX c #BD833D",
"jX c #AA965E",
"kX c #F5E9A9",
"lX c #B19364",
"zX c #75795C",
"xX c #898D67",
"cX c #EF8723",
"vX c #D48434",
"bX c #E0913C",
"nX c #CDC07B",
"mX c #89835B",
"MX c #C7CA96",
"NX c #D4A85E",
"BX c #D6A155",
"VX c #D4B96C",
"CX c #A05D27",
"ZX c #CCD39F",
"AX c #DBDFA8",
"SX c #F99628",
"DX c #7D8564",
"FX c #C6772A",
"GX c #DF862E",
"HX c #8EA080",
"JX c #B9C093",
"KX c #DACD83",
"LX c #F0D27C",
"PX c #D5BC88",
"IX c #ADB88C",
"UX c #939265",
/* pixels */
"/ / / / / D D D D D D H H H 6 6 6 - - - - & & & Y Y Y Y Y Y V < V V z V V V V q N.N.q q q q q q q q q N.$Xq z z T T T T B B B 5.5.5.O.O.O.O.O.O.O./ / ",
"/ / / D / D D D H H H H H H H 6 - - - & & Y Y Y < Y Y Y Y < V V V V V V q $.$.q K N.K i i i i i i i K I.N.q q z z z T T T B B B 5.5.5.5.O.O./ / O.O./ ",
"/ O./ D D D H H H H H H H H 6 6 - & & Y Y Y < < < < < < < V V I $.$.$.$.i i i i K I.N.K K K K K K K N.I.N.K q q q z z z T T T B B B #XO.O.O./ / / / / ",
"/ O.D D D D D H H H H 6 6 6 6 - & Y Y Y < < o < < < < V V I $.$.$.i i i i K N K _ I.I._ _ _ _ _ _ _ _ %X_ K K K q q q z z T T T #X#XB 5.O.O.O.O./ / / ",
"/ D D D D H H H H 6 6 6 - - - - & Y < < I < < < o I I I I $.2 $.i ' N N N N N N _ h %Xl h h h h h h I.%X_ _ _ K K K q q z z z #X#X#XB 5.5.O.O.O./ / / ",
"D D D D H H H H 6 6 6 - - - & & & < < < < < o o I I I $.2 $.i ' i N N C C h C h h l ,.k.l l l l l l %X,.h h _ _ _ K q q q q $X$X#XT B 5.5.5.5.O.O./ / ",
"D D H H H H H 6 6 6 - - & & d d Y Y < < < o I I I 2 2 2 i i ' N N N C h h h l l l ^ ,.,.k.=.=.=.^ ^ ,.,.l l h h h _ K K q $XN.$Xz T B B B 5.5.5.O.O.O.",
"D D D H H H 6 6 6 - - - & d # o < Y # o I I I $.2 2 ' ' ' ' ' N N h l l ^ ^ ^ ^ ^ =.1.eXq.1.1.s.s.1.eXq.^ ^ l l l h _ K K I.N.q z T T B B 5.5.5.5.O.O.",
"D D D H H 6 6 6 - - - & d # < < # # < < I I $.2 2 ' ' ' ' N h ^ =.1.q.1.q.q.q.V.V.0.0.V.eX1.y.y.y.q.V.q.=.=.^ k.^ h h _ I.I.K q z z T T B B B 5.5.O.O.",
"D D H H H 6 6 - & & & d # o < # < o o < , 2 2 2 ' i N h k.,.q.q.0.0.V.q.0.9.c.c.c.c.c.R.M.c.V.0.0.0.c.V.1.1.1.,.^ l l %X%XN.K q V z z T B B B 5.5.5.O.",
"D H H 6 6 6 6 & & & # # o o o o o ; ; I $.2 2 $.N ^ ,.,.q.V.q.1.=.^ ^ ^ =.1.1.y.0.9.w.F.M.R.R.R.c.V.R.V.0.y.q.q.=.^ ,.eXI._ K i q q z Y T T B B 5.5.5.",
"H H 6 6 6 6 6 & & d o o o o o ; I , 2 2 2 2 i h ,.q.q.1.=.l E E <.y.y.y.*X9.9.9.9.9.9.9.M.M.M.M.M.M.M.c.9.9.V.q.1.q.eXk.h h _ K q q z z Y T B B B 5.5.",
"H 6 6 6 6 - - & d # o o o o ; , 2 2 2 2 2 ' ^ ,.q.1.E C E <.y.9.w.CXCX3XCXH.H.H.3X3XCXF.R.b.M.M.b.b.`.M.c.c.V.0.q.c.q.^ l h _ _ K q q z Y T T T B B B ",
"6 6 6 6 - - & d d # o o ; I , , 2 2 2 i l l ^ 1.l C l s.9.w.F.3XH.fX4X4XH.4XGXGXGXGXFXFXH.<X`.b.b.`.`.b.b.M.9.9.R.V.1.=.^ l h _ K i q q z z z #X#X#XB ",
"6 6 - - - - & d # # # ; ; , 2 2 2 2 i =.1.,.l C l s.9.CX3XFXH.H.4X4XGXGX+X+X7X7X7X7XvXbXcXcXsX<X<X<X<X`.`.`.R.R.c.0.y.1.=.^ l h _ K K q $X$X$X$X#XB B ",
"6 6 - & & & d # o # o o , 2 2 2 2 i =.1.1.^ C E y.F.3XH.fX4XvXfXgX|.o.L.;XP.-Xm.m.P.).e.2X7XSXcXsXsXsX<X<X`.`.b.9.0.0.y.1.=.^ l h _ N.I.N.N.$Xz T B B ",
"6 - - & & d # o # o o I I 2 2 2 N =.k.=.l C <.w.Q.3XFXfXvXbXJ.:XOXW @.@. .{ ( ( Q b Q Q 0XP.L 2XSXSXcXsX<X<X<Xb.R.9.9.0.y.=.k.k.%X%X%XI.N.q z z T B B ",
"6 6 - d d # o o o o ; , 2 , 2 i =.k.=.h C s.CXH.H.H.>X+X XL.= p ~ ~ W +.@. .{ ( ( b b b Q Q Q 0X} 2XSXSXcXsXH.b.b.R.9.0.q.q.eXeX,.%X_ K i q V z T T B ",
"6 - & d # ; ; o o ; , ! 2 2 $.^ k.=._ C y.CXH.FX4XvXNXL.1 0 > > u ~ ~ +.+. .{ { ( ( b b b Q Q Q b 0X!.2XSXcX<Xb.b.b.c.c.R.c.eX,.l h _ K i q V z Y T B ",
"6 - d # o ; o o ; , 2 2 , 2 ^ =.=.C E 0.iXH.FX4X+X) a = = 0 > > u p ~ +.@.@.{ { ( ( b b b Q Q Q Q b b ;X2XcXsXH.b.`.`.R.V.q.s.^ l h C N i i q z Y T B ",
"- - d # o o o o ; , 2 ! , h k.=.l C {.iXfX4X4XgX).1 1 1 = 0 > > u p W +.+.@. .{ { ( b b b b Q Q Q Q b b m.2XcXsX<X`.b.R.0.y.y.s.^ l h N K i q V Y T T ",
"& & & # o o o ; , 2 2 , i k.,.l N s.w.Q.fXvXBXL.a S O O 1 = 0 > u p ~ +.+.@. .{ { ( ( b b b Q Q Q Q b Q b -X2XsX`.b.M.M.c.0.y.s.=.l h h N i q V z Y T ",
"& & # # # o o ; , , , , ^ k.k.N <.Q.>X3X3XdXL.S 4 S S O O = 0 > > u ~ W +.@.@. .{ { ( ( b b Q Q Q Q Q b ( b -XBXH.3XM.M.CX0.y.s.=.^ l h N K i $.V Y Y ",
"& d # o o # ; ; , , , N =.y.N C w.>XfXvXhX:X+ X + 4 S O O 1 0 0 > u p W +.+.@. .{ { ( ( b b b Q Q Q b b ( ( b ;X+XH.M.CXCXw.y.s.s.^ l h _ N K $.V < Y ",
"d # # o # o ; ; , , 2 ^ ,.l ' {.>XfX4X+XA X 9 X X 4 S S O = = 0 > u p ~ W +.@.@. .{ { ( ( b b b b b b ( ( ( ( ( ).4X`.b.b.M.c.V.eX,.,.%XI._ _ K q q z ",
"d # o o # o ; , , ; h ,.1.' E w.iXfXvXJ.: 9 9 9 X 4 4 S O 1 = 0 > u p ~ ~ W +.@.@. .{ { ( ( ( b b b ( ( ( { { { +.~.<X`.b.b.R.V.V.eXeX,.%X%XI.I.N.$X$X",
"d # o o o ; ; , , I =.,.^ N 0.>X>X>XgX3 9 : : 9 X + 4 S O 1 1 0 > > u p ~ W +.+.@.@. . .{ { ( ( ( ( ( { { {  . . .m.hXiXF.CXc.1.=.=.^ l l h _ N.K q q ",
"o o ; o o ; ; , ; ' ,.q.C C Q.vXbXgXK.:     : 9 X X + S S O 1 = 0 > u p p ~ W +.+.+.@. . .{ { { { { {  . . .@.@.@. .2.iXQ.F.F.0.<.<.<.E C N N i i $.V ",
"o o ; o ; ; , , ; h ,.1.C <.>XbXbX9Xj $ .     : 9 X + 4 S O 1 = 0 > > u p ~ ~ W +.+.+.@. . . . . . . . . .@.@.@.+.@.-XdXQ.F.F.9.s.<.<.E C N N i 2 I V ",
"# o ; o ; , , , , k.,.^ n F.bXbXbXK.$ $ $ . .   9 9 + 4 S O 1 = 0 0 > > u p ~ W W W +.+.+.@.@.@.@.@.@.@.@.+.+.+.+.+. .x iXF.F.w.y.<.<.E C C N i 2 I V ",
"# o o o ; ; , ; ' ,.1.E <.>X7X7X9X-.Z Z Z Z $ . : 9 + 4 S O 1 = = 0 0 > > p p ~ ~ ~ W +.+.+.+.+.+.+.+.+.+.+.+.+.W +.+.m.aXF.F.w.0.<.<.E C N N i $.I < ",
"# # o ; ; , , o h ,.s.C *XiXfX+X|.Z j j s s Z .   : X 4 S O O 1 1 1 0 0 > u u p p p ~ W W W W +.+.+.+.W W W W ~ W ~ ~ +.&XF.w.w.9.<.<.E C N ' 2 $.I < ",
"d # # o ; , , ; l ,.^ E Q.+X+XgXL s 3 3 s s Z .   : 9 4 S O O 1 1 1 = 0 > > > u u p ~ ~ ~ ~ ~ ~ W W W W ~ ~ ~ ~ ~ ~ p W k Q.w.w.9.<.<.E C N ' 2 $.I < ",
"# # o ; , , ; I ^ 1.E E '.7X7X8XG 3 3 3 s s Z $ . : X 4 S O O O 1 1 = 0 0 0 > > > u p p p p ~ ~ ~ ~ ~ ~ p p ~ ~ p p u p ;X'.w.w.c.s.<.E C N ' 2 $.I o ",
"o o o ; , , ; $.k.q.E <.hX7X7X|.3 G * 3 3 s s $ . 9 X 4 S S a O 1 1 1 = = = 0 > > u u > u u u u p ~ p u u u u u u u u u -XaXw.w.9.s.<.E C N ' 2 I I o ",
"o o o ; , , ; 2 k.y.C {.+X2X2XK.* @ * * 3 3 s . : 9 + 4 S S a O 1 1 1 1 1 1 = = 0 > > > > > > > u u p u u > u u > > > > > S.w.w.9.{.E E C U ' 2 I I I ",
"o o o ; , , ; ' =.1.C *.gX2X2Xn.@ @ -.* * 3 Z .   9 + 4 4 S a a O O O 1 1 1 1 = 0 0 0 > > 0 0 > > u u u > > > > > > > 0 u wXw.*X9.y.E E C U ' 2 I I I ",
"o o o o ; ; ; ' ^ =.C *.+X7X2X!.r r -.@ * 3 Z . : 9 X + 4 4 S a a a a O O O O 1 0 0 0 0 = = 0 0 > > > > > 0 0 > > 0 0 0 > PXw.*X9.{.E E C U ' 2 I I o ",
"# d # o o o o ' l =.n *X+XgX9X!.r r r -.* 3 $   : : 9 + + 4 S S S S S S S O O 1 = 1 1 = = = = 0 > > 0 0 = 0 0 0 0 0 0 0 > 2.w.*X0.{.E n U ' 2 , o o o ",
"- - & d d d # , C E n *XBXl.l.!.r r r @ G j $ .   : 9 X + 4 4 S S S 4 4 S O O 1 1 1 1 1 1 1 1 = = 0 = = = = = = = = = = u yXrX*.{.<.U U ' 2 , o # # # ",
"Y < V I $.i N C E <.{.w.gXl.n.6X@ @ r G ..j Z $   : : 9 + 4 4 4 4 + + + + S O O 1 O O O O O 1 1 = = = 1 1 1 1 1 1 1 1 1 e lXrX*X{.>.E U ' ' 2 I < d & ",
"T V q i K _ h l =.s.{.Q.hXhXgXNXK.@ @ * * 3 Z $     : : X + 4 + + + + + 4 S O O O a O O O O O 1 = 1 1 1 1 1 1 1 1 1 1 = BXQ.Q.w.0.y.s.h E N K i $.< - ",
"6 B z V q i K _ h l s.F.iX>XhXdXK.G @ @ * 3 Z Z .   : : 9 X + X 9 9 X + + 4 S S S S S S S O O 1 1 1 1 O O O O O O 1 1 1 L.aXw.*Xy.s.^ C N i $.V Y - - ",
"- - z V $.i N C E <.w.>XhX+X+X9Xn.@ @ * 3 s j Z $   : : : : 9 : : : 9 X + 4 S S 4 4 S S S S O O O 1 O O O O S a O O O O S wXQ.*X{.s.E C N i $.V T - - ",
"& & & V $.i N C E E w.>XhXhXBX!.5 5 r * 3 3 j Z $ .   : : 9 : : .   : X + 4 4 4 + + 4 4 S S S O O O O S S S S S S S S S O OXaX0.{.<.E C N i $.Y - - & ",
"& d d I 2 ' U C E <.iXBX8XBXn.!.g 5 @ G ....3 s $ .   : :   .   .     : X + + + X X X + 4 4 4 S S S S 4 4 4 4 4 4 S S S S 4 Y.*XX.>.<.E U ' $.Y & & & ",
"- d d < , 2 ' U n >.'.hXNX9X!.!.g 5 @ @ * ....j Z . . . . . $ . . .   : X + + 9 9 X X 4 4 + 4 4 4 S 4 4 4 + + 4 4 4 4 4 S 4 S.*XX.>.y C U ' , # & & & ",
"- d d ; 2 ! [ ` n y '.NX.X5XoX!.5 5 5 r @ * ..j Z $ $ $ $ Z Z Z $ .   : 9 9 9 : : : 9 X X X + X 4 4 + X X X X 4 + + + 4 + S PX*X>.y n U ' , ; d d & & ",
"- & d , ! [ U ` y >.E.8XC.5Xn.!.5 5 5 5 @ G ..j Z Z $ Z j 3 3 s s .   : 9 9 :   .   : X 9 X + + 4 X X X X X X X X X X + X + lX*.X.>.n ` U ! , o d & & ",
"Y & # , ! [ U n y >.a. X|.C.C.!.g 5 5 @ G G ..j j Z j ..3 3 3 s s $   : : :   . .   : : : 9 X + + X X 9 9 9 9 X X X X X X : j.*.X.;.y n U ! ! o d d d ",
"d & # , ! U U n y ;.h.|.l.C.n.!.g 5 5 @ @ ....j j j ..G * * * 3 Z . : : : . . $ .   :     : : 9 X 9 9 : : : : 9 : : 9 9 :   j.*.X.;.y n U [ ! ; # # # ",
"d d # , ' U ` n >.X.'.9X9X9XK.g g g 5 @ @ G ..j j ..@ @ @ * * 3 s $ .     $ $ Z . . . . .   : : 9 : :     : : :     : : : : Y.*.X.;.y n ` [ ! ; o ; ; ",
"- # o ; 2 ' U n >.X.'.gXS.dXK.!.g 5 5 @ @ G ....G @ @ r r -.* 3 s Z $ . $ Z Z Z $ . . . . .   : :   . . . .       .       : &X*.X.;.y n ` [ [ , ; ; ; ",
"& o o ; ! [ U n >.p.S.C.C..X6X!.g g 5 5 @ G G G @ 5 % % r r @ * j Z $ $ s s s s Z $ . Z $ . . . . . . $ $ $ . $ . . . . .   ).rX;.y y n ` [ ! ! ; o ; ",
"& o ; , ! U n y ;.%.aXZ.Z.l.n.!.g g g 5 @ G @ @ 5 5 % % r r @ G 3 j Z s 3 3 3 s s Z Z s Z $ . $ $ $ s $ Z s Z Z $ $ $ . . . PXa.8.;.y x.` ` [ [ t.t.[ ",
"d ; ; ! [ ` n y X.*.(.8Xl.l.n.g g g g 5 @ @ 5 5 g 8 8 8 % r @ G ..j j ..* * 3 3 s j s s s Z Z $ s s s s s s Z s s Z $ $ $ $ lX%.8.;.y x.x.x.` 7.[ 7.7.",
"d ; ; ! U ` y ;.%.*.aXl.C.C.5X!.P P g 5 5 5 5 g 8 J J 8 % % @ G ..j ..@ @ * * 3 s 3 3 3 3 s s s s s s s 3 s s s s Z Z Z $ $ ,X%.%.;.d.x.x.d.x.A.7.7.7.",
"# ; , ! U n >.X.*.a.aXZ.LXn.5XM P P g g 5 g g P M M M 8 8 % r * ....G r r -.* * 3 * * * 3 3 s s s s s 3 3 s s s 3 s Z Z s Z ,X%.%.8.;.d.d.d.d.d.A.A.7.",
"# , , U n >.X.*.a.rXdXC.l.J.n.M P P g g P P M M L F M J P g 5 G G @ r r r r -.* * * -.* * 3 3 3 * * * * * 3 s 3 3 3 s s s s ,X*.%.8.8.u.u.u.u.u.d.A.A.",
"o ; 2 U n >.X.*.a.rXaXBX9XNXn.F M P P P P F F | | | M M J g 5 @ @ @ g % r % r -.* @ r -.* * 3 * -.-.-.-.-.* 3 3 3 3 3 s s s lX*.%.%.f.f.f.f.f.u.u.d.A.",
", ! U n y >.X.*.a.v.D.K.5XoX} F M M M M F | R R R R F M P g 5 @ @ 5 8 8 % % % r r r r r -.* * -.-.r r r r * * * * * 3 3 3 3 PXa.%.8.8.f.f.f.f.u.u.d.A.",
"! ' U y >.X.%.*.a.rXdXZ.C.n.n.3.F F F F 3.f f f f R F M M g 5 5 5 g 8 8 8 % % r r % % % r -.* r % r % % r -.-.* * * * * 3 3 yX^.8.f.u.f.f.f.f.u.u.d.A.",
"U U n y >.X.*.p.rXrXdXl.Z.C.n.3.F | 3.3.f e.e.e.f R | M P g 5 g g J J 8 8 8 % % % % % % r -.-.r } % } } % r -.-.-.* * * * G lX%.%.f.f.u.f.f.f.u.d.d.A.",
"` n n >.X.%.*.a.rXh.dXl.Z.5Xn.f R R f f e.A A e.f f | M M g g g P M M J 8 8 % % % 8 } % r r -.% } } } } } % -.-.r r @ @ @ -.j.%.8.8.u.u.u.f.u.u.d.A.A.",
"n n n >.X.*.a.rXh.v.dXl.l.5Xn.f f f i.A A A A A f f R F M g g P P F M M J 8 % 8 8 J } } r r r } J J } } } % r r r % r @ @ r _.%.8.8.u.u.u.u.u.d.A.A.7.",
"y n y ;.X.*.a.h.v.'.S.Z.8X8XZ.f f e.A A 7 7 7 A e.f R F P P P P M M M M J 8 8 8 J J J } % r % J J J L L } } % r % % r r r 5 j.%.8.8.u.d.d.d.d.A.A.7.7.",
";.y y ;.%.*.a.h.'.(.dXNXJ.yXL.i.i.A A 7 ) ) 7 A e.f 3.F P P P F F M M M J J 8 J J L J } % % } J L L L J } } % % % % r r r 5 Y.%.8.;.d.x.x.x.A.A.7.7.7.",
"y y >.X.%.a.rXv.(.].T.oX5XLXL.L i.A 7 ) t ) ) 7 A e.3.F M P F F | F M M J J J J L L L } } % } L L L L L J J % % % % % r 5 G &X%.;.y x.x.` 7.7.7.t.t.t.",
"y y ;.%.*.a.h.4.(.,X/.:XL.oXoXL A :.) t t t ) 7 A i.3.F M M F 3.| | F F M J J L L L L J } } L o.o.L o.L L L J % % 8 8 % g ).tX*.;.y x.` ` 7.[ t.t.t.t.",
"n y ;.%.p.^.h.4.(.Y./.r.K.}.Z.K.:.) ) t t t ) 7 A i.3.F F F 3.f R R R | M M L F | | L J } } L o.o.L o.o.L L J } 8 8 8 8 8 ).4.X.y n U [ [ [ 7.t.t.t.t.",
"n y ;.*.a.^.h.4.(.Y.S.NXl.J.Z.K.&.t m m m t ) 7 A i.3.F F 3.f e.f f R R L L L | | o.L L J J o.o.o.o.o.o.o.L J J } 8 % 8 8 wX4.%.y ` [ U [ [ [ t.t.] ] ",
"n y 8.*.a.^.v.4.j.Y.T.J.8X9Xl.K.t m m m m t ) 7 A i.3.3.3.f A e.e.e.f R | | | R R x o.L L L o.o.x x x o.o.o.J } } 8 8 % } 4.;.n U U [ [ [ [ [ 6.6.] ] ",
"` y 8.*.a.^.v.4._.Y.J. X8XJ.8XK.t m m m m t ) :.i.i.f 3.f i.A e.A A e.x R R | R x x o.L L o.x x x x x x x o.L L J J J 8 8 (.;.n U [ ! 6.[ 6.[ 6.6.] ] ",
"n y 8.%.p.^.v.4._./.C.|.8X9XNXr.m m r.m m m t :.i.i.f f i.A v A A A e.e.x f f k k x x o.o.o.x k k k k k x x o.L J J J J } 4.>.n U ! ! ! 6.6.6.6.6.] ] ",
"n ;.%.U.^.h.4.j.,X&XC. XBXS.}.7 r.r.m m m t &.:.A i.f i.:.7 7 v c c c e.e.e.e.k k k o.o.o.o.x k k k k k k x o.L L L J 8 8 4.>.n U ! ! ! 6.6.6.] ] ] #.",
"x.8.%.U.^.h.4._.jXB..X5X}.D.6Xo.r.m r.m m t &.:.i.i.i.i.:.w 7 7 v v c e.e.e.c c c k x o.x x k k c c k k k x o.| | L L M J (.>.n U ! ! ! 6.6.] ] ] ] ] ",
"y 8.U.p.^.v.G._.tXW.VXyXn.D. XK.r.r.r.m m t &.:.i.i.i.:.&.&.w w 7 v v c e.e.v c v c x x x k c c c v c c c k R | | | | M P ,X>.n U , , ! 6.6.] ] ] #.#.",
";.%.U.p.^.v.G.,XB.}..X XZ.J.J.A r.r.r.r.m t &.:.:.:.:.&.t t t w w 7 v A c c v 2.v c x x k c 2.2.2.2.v v c k x o.R R R F M lXX.y U ; , ! 6.] ] ] #.#.#.",
"8.U.U.g.h.4.j.jX&XVX}.J.Z. XJ.) r.r.r.m t &.&.&.:.:.&.t t t e w 7 7 v c v v w w 2.c k x k c 2.w 2.2.2.2.c k x x e.e.e.R F lX%.>.` , , 6.6.] ] #.#.#.#.",
"f.U.U.^.h.4.j.jXB.T. XJ.l.J.J.) r.r.m t A &.&.:.:.&.&.t t t w v e.e.c v 2.w w w 2.c k k c 2.w w w 2.v 2.c k x e.A A A A f Y.X.>.n , , ! ! ] ] #.#.& #.",
"f.U.U.^.v.4.j.,XtXT..X X8X9XS.m m t &.A f :.&.:.&.&.t t t 7 c e.R | e.c 7 w e w 2.2.k k v w w w w w v v c k k c 7 ) ) ) A Y.*.8.n ' ! ! ! ] ] #.#.#.& ",
"U.U.g.h.4.G._.jXB.W..X X XC.D.m t &.i.3.3.:.&.&.&.t m m &.e.R f F | e.c w w e e w 2.c c 2.w e e w w v v c c e.7 ) m r.~.~.,Xa.8.n U ! , , ] ] #.#.& 6 ",
"U.U.g.[.4.G._.jXB.W..X|. XC. Xt &.:.3.M 3.i.&.&.t m m m 7 R f e.f f v 7 w e e e e 2.c 2.2.w e e w 2.7 v v 7 7 ) r.~.D.T.&XlX^.8.y n [ , ] ] ] #.#.& 6 ",
"U.g.^.[.4.G._.jXT.VX.X.XC.LXJ.i.3.F P 8 3.:.&.&.t m m t A R R e.v c w e e e e e e 2.2.2.w e e e w w 2.7 7 ) m r.~.D.T.B.S.j.p.X.y n ` 6.! 6.] #.#.& 6 ",
"U.g.g.v.4.(._.tXT..X.XC.n.LXJ.f P g 5 5 F :.&.t m m t A | M M R v w w e e e e PXw 2.2.w e e e e w w 7 7 ) m r.~.D.T.&XS./.G.*.X.y n ` [ [ 6.6.] #.& - ",
"U.g.g.[.XXj.,XtXW.VXl.|.Z.Z.J.3.g 5 @ 5 3.i.:.t m t 7 J ..@ r 8 v e e e e e m e w 2.w w e e e e w ) ) ) m r.~.D.wXT.B././.'.p.X.y n ` [ [ [ [ t.] #.& ",
"g.g.g.[.XXj.,XtXW.VXl.|.Z.|. XM P 5 @ @ P F f &.t A | * . s s -.k w e e e e e PXw w w w e t e t e ) ) m r.~.D.wXT.B.S./.].'.p.X.y ` ` [ [ 7.[ t.] #.& ",
"g.g.g.[.XX_.,XtXW.}.l.|.Z.|.K.r P g 5 @ 5 8 R :.A f % . 9 . . Z % f v 2.e m e e w w w w e e e t t ) t r.~.D.wXT.&XB.S.].].'.p.X.y n ` ` 7.7.[ t.t.#.& ",
"g.g.[.[.XX_.jXB.W..XZ.|.C.K.) !.P % r @ * @ % L M 8 * : 4 X 9 . 3 8 f e.w e e w w 7 7 7 w w ) t ) ) m ~.~.D.wX&XB.S./.].].aXE.*.y y y x.` ` 7.7.t.] #.",
"g.g.[.[.mX_.jXB.W.}.|..XLX6X:Xn.!.r @ 3 Z 3 * * @ 3   X 4 4 X   Z % | e.7 w w w 7 7 v 7 7 7 ) ) ) m r.~.D.wXT.B.S./.].Y.].aXh.p.;.>.;.y x.x.` 7.[ t.] ",
"g.g.[.zXmXxX=XuXnXnX5XK.n.1X5X5X6X6X..j $ j 3 3 j . 9 + + 9 :   $ * J c v 7 w v v v v v c v 7 7 ) m ~.D.wXT.&XS./.].Y.j.(.'.E.p.X.;.8.8.;.x.` 7.7.t.] ",
"g.[.zXzXzXmX=XuXnXKXkXoXK.5XoXoX6X6X6XZ $ Z s 3 s   9 X X : : . $ @ J x c v v c c c c k k e.7 7 ) }.~.D.T.&XB././.].Y.(.v.E.p.p.X.X.%.%.8.;.x.` ` [ ] ",
"zXzXDXDXxXxX=XnX:XKX:X1XqXz.1X1X1X6XZ . . $ $ Z $   : 9 X X : . j r 8 L R c e.k e.k x o.x x yXyX) }.~.wXT.B.tX/.].Y.j.G.4.E.p.p.X.%.%.%.8.;.y x.x.` ! ",
"zXDXxXUX=X=XIXMXqXqXoX1XoXoXoX6X1XkXOXOXOXX   $ . :   : 9 9 : Z 3 @ % 8 L | | R R o.L L L o.:XyXyX}.VXW.&XtX/.].Y.j.(.G.4.h.E.a.p.p.p.p.%.X.>.n n ` ! ",
"DXxXHXHXIXJXMXZXZXqXqXqXqXoXkXOXm.@X@XO OXOXOXOXO = 0 1 O +   s * @ % % 8 M F | | L } ).).).).:XyX}.VXW.B.S.].Y.j.(.G.4.4.v.E.E.E.h.E.rXp.%.>.<.>.E 2 ",
"HXHXHXuXuXIXMXZXAXpXpXpX1XpX@X@XW  .+.@X@X> > > @X@Xm.P.kXz.. P.OXP.P.;X-.-.z.-.-.-.-.-.} ).).).:XKX}.W.B./.Y.j.G.4.G.h.E.E.E.E.h.v.v.h.a.*.{.<.=.C ' ",
"DXxX=XuXJXZXAXAXAXAXqXoXpXz.z.pXpX@X@Xa OXkXkXOXm.@X@X@XO OX0 p ~ +.@.0X0X0X0X0X0X-X;Xz.z.z.z.z.oX:X.XW.S.].j.G.v.v.mXXXXXXXXXXXXX4.'.v.h.a.*.{.s.l i ",
"DX=XIXJXMXMXMXMXqXAXpXm.@Xz.).z.P.OXL.L.L.;X@X> = OXP.;XP.@Xm.m.m.m.P.z.z.m.-X+.@.u -XOX;Xz.z.qXKXnXW.T.B.tX=XUXmXXXXXXXmXmXmX_.j.(.(.4.h.^.*.{.l _ q ",
"[.DXUX=XuXJXZXpXm.pXpXm.a 6X}.yX:XL.kXOXP.z.L.).).).L.;X-X~ ~ 0X0X> m.K.|.).P.-X0 P.z.L.z.z.z.AXqXKXnXW.uXuX=X=X=XxXE.*XE.v.j._.j.'.'.rXrXa.*.>.E N ' ",
"[.zXxX=XuXuXJXMXZXMXnX}.:XkXkXz.yXD.wXD.D.r.x z.O -XP.m.-Xm.1 O   % } L.;X~ @.-X;X;X;Xm.@XP.z.:XnXW.W.uXtXjXUX_.XX4.G.G.G.G.G.Q.Q.'.'.'.v.rXp.{.E U I "
};
