/* XPM */
static char *_157_49e0403cf465d8b7eb41f22cda7d76442960317a0664446ac585e5508f4d0262[] = {
/* columns rows colors chars-per-pixel */
"50 44 7 1 ",
"  c #333A3F",
". c #384145",
"X c #3D474B",
"o c #2D3438",
"O c #262D31",
"+ c #20262A",
"@ c #485156",
/* pixels */
"@@X@@@@@X@@@XX@XXXXXXXXX@@@@o.@@@@@@@@@@@@@. oOOo ",
"XXXXX.    .@@@X..XXXXXXXXXX@o.@XXXXXXX......  OOOo",
"XXXX..     .XXX...XXXXXXX@@@o.XXXXXX....   ....oOO",
"XXX..      .X.....XXXXXXX@X.o.XXXXXXX..... ..... o",
"XXX.       ..  o ...XXXX@Xooo .XXXX.X............o",
"X..    o    ooooo ..XXXX@ o.ooXXXX.X.X.... ......o",
" .  ..oOOOoO+o.  ooo  .XXO .oO.XX....X... ...... o",
"+OoooO+++++++OoO++++++Oooo o+OO+OOOOOOO++O+OoOO+++",
".XXX.  ooX.  XX. OXXXXXX.X@XXX@XXXOoooooo +Oo++XX ",
" ..X@@@@@@X ....  @@X.....X..XXXX@ o oooooO  oo@XX",
"       .  o . .. oXX. . .. oo  o .  OOOOOo  o  @XX",
"o       OXX. ... o.X.   ooooooo  . oOOOOOo  oo XX.",
"       oo@X  ... O..  ooooOoooo   ooOOOoOo oooo.X.",
"o      oOX. ....oOo ooooOoooooo   OOOOOOo o ooO .X",
"      .o+.  ..X.oOo oooOoooo     o+OOOOOooo o++o..",
"  o   . +X. .XX.OOo ooooo    .X..o+OoO+Ooo  +++o  ",
"OOO++OOO+ O+++O+OOoO++++OOOOOOOOoO++++++++++++++++",
".X.O+ ooo           OO.X.XXXXXXXXX@@@@XX ...XXXXXo",
"..XX .ooo        oo oX@@@XXXXXXXXX.X.XX@.@X....XX.",
"   .  ooooooooooOOOOOXX..   ..        .X @.       ",
"     ooo ooooOOOOO+O+ .  .   o         . @.       ",
"    o oooooOOoOOOOOO++Oooo    o         o.        ",
"   oOooooooOOOOOOO+O+O   oOo      o o ooOo        ",
"... +oooooOoOOOOOOOO+OXXXX o o oo    ooo+o        ",
"... +OoooOoOOOO+O+OO++  ..X O    ooooooo+O  o     ",
"OooO++++++++++++++++++OOOooO++OO+++++++O+OOOOOOOOO",
"      . .  o++  ...oOooo o   .o++++++OOooO+ ..    ",
"XX@@@@@@@@@@oX@@X@XXXXX@.X@@@@@. .oooooo  O@@XXX@X",
"....XX.X.XXXXX@  ..XXX@..@XXXX@X  ooOOOOOoo@..XXXX",
".........XXXXXXo ..XXXX @@XXXXXXo oooOOO++OX....XX",
"....    ..XX.X.o  ..XXX @XXXXX..oooOOOO+++O   .X..",
"....  . ..XX ..oo  ..XXoXXXXX.. OOOOOOO++++ooo XXX",
".... .  ...Xo .oo   ...o XXXX. OOOO++++++++ooOOo .",
"........... Oo.   . .. o ...   OOoOOOO+O+O+OooOO+O",
"oooo o o   O+O.oOOOOOOOOooOOOOoOO OO++++++++OOO+++",
"OOOOOO++OOO+++++++OO+++++OOoOOOO++++O+++OO+OOOOOOo",
"...X@@..@@.. oo  .XXXX@@o@@@@XXXX.XXXXXO@@XXXXXXX.",
"...XX@XX@XX.......X....@ @X....XXXXXX.. @  XXXXX  ",
"..XXX@.X@XX.        .  X @X ...XXXXXX. oX  .....  ",
" ..XXX..@X.     ooo    X @. ..XXXXXX..oO.         ",
"   .XX  X.    . ooo   .. .   ..XXXXX. oO oooo     ",
"  ..XXo X.   oOOooo  ...  o  .X.XX..  o+Ooooooooo ",
"  ..XXooX   o+OOoo   ...oooo  ....    O+ooooooooo ",
"OOOOOO+OoOOO+OOOOoOOOO+++++OOOoooooOOO+++oOO++OOoo"
};
